<?xml version="1.0" encoding="UTF-8" standalone="no"?>
<!DOCTYPE svg PUBLIC "-//W3C//DTD SVG 1.1//EN"
 "http://www.w3.org/Graphics/SVG/1.1/DTD/svg11.dtd">
<!-- Generated by graphviz version 2.38.0 (20140413.2041)
 -->
<!-- Title: models_diagram Pages: 1 -->
<svg width="748pt" height="109pt"
 viewBox="0.00 0.00 747.55 109.00" xmlns="http://www.w3.org/2000/svg" xmlns:xlink="http://www.w3.org/1999/xlink">
<g id="graph0" class="graph" transform="scale(1 1) rotate(0) translate(4 105)">
<title>models_diagram</title>
<polygon fill="none" stroke="none" points="-4,4 -4,-105 743.55,-105 743.55,4 -4,4"/>
<!-- _diagram_info -->
<g id="node1" class="node"><title>_diagram_info</title>
<text text-anchor="start" x="8" y="-72.6" font-family="Times,serif" font-size="13.00">Models diagram</text>
<text text-anchor="start" x="8" y="-59.6" font-family="Times,serif" font-size="13.00">Date: Jul 14 2016 &#45; 19:20</text>
<text text-anchor="start" x="8" y="-46.6" font-family="Times,serif" font-size="13.00">Migration version: 20160714221437</text>
<text text-anchor="start" x="8" y="-33.6" font-family="Times,serif" font-size="13.00">Generated by RailRoady 1.5.1</text>
<text text-anchor="start" x="8" y="-20.6" font-family="Times,serif" font-size="13.00">http://railroady.prestonlee.com</text>
</g>
<!-- Category -->
<g id="node2" class="node"><title>Category</title>
<path fill="none" stroke="black" d="M237.825,-7.5C237.825,-7.5 461.55,-7.5 461.55,-7.5 467.55,-7.5 473.55,-13.5 473.55,-19.5 473.55,-19.5 473.55,-81.5 473.55,-81.5 473.55,-87.5 467.55,-93.5 461.55,-93.5 461.55,-93.5 237.825,-93.5 237.825,-93.5 231.825,-93.5 225.825,-87.5 225.825,-81.5 225.825,-81.5 225.825,-19.5 225.825,-19.5 225.825,-13.5 231.825,-7.5 237.825,-7.5"/>
<text text-anchor="middle" x="349.688" y="-78.3" font-family="Times,serif" font-size="14.00">Category</text>
<polyline fill="none" stroke="black" points="225.825,-71.5 473.55,-71.5 "/>
<text text-anchor="start" x="233.825" y="-56.3" font-family="Times,serif" font-size="14.00">id :integer</text>
<text text-anchor="start" x="233.825" y="-42.3" font-family="Times,serif" font-size="14.00">name :character varying</text>
<text text-anchor="start" x="233.825" y="-28.3" font-family="Times,serif" font-size="14.00">created_at :timestamp without time zone</text>
<text text-anchor="start" x="233.825" y="-14.3" font-family="Times,serif" font-size="14.00">updated_at :timestamp without time zone</text>
</g>
<!-- Product -->
<g id="node3" class="node"><title>Product</title>
<path fill="none" stroke="black" d="M503.825,-0.5C503.825,-0.5 727.55,-0.5 727.55,-0.5 733.55,-0.5 739.55,-6.5 739.55,-12.5 739.55,-12.5 739.55,-88.5 739.55,-88.5 739.55,-94.5 733.55,-100.5 727.55,-100.5 727.55,-100.5 503.825,-100.5 503.825,-100.5 497.825,-100.5 491.825,-94.5 491.825,-88.5 491.825,-88.5 491.825,-12.5 491.825,-12.5 491.825,-6.5 497.825,-0.5 503.825,-0.5"/>
<text text-anchor="middle" x="615.688" y="-85.3" font-family="Times,serif" font-size="14.00">Product</text>
<polyline fill="none" stroke="black" points="491.825,-78.5 739.55,-78.5 "/>
<text text-anchor="start" x="499.825" y="-63.3" font-family="Times,serif" font-size="14.00">id :integer</text>
<text text-anchor="start" x="499.825" y="-49.3" font-family="Times,serif" font-size="14.00">name :character varying</text>
<text text-anchor="start" x="499.825" y="-35.3" font-family="Times,serif" font-size="14.00">category_id :integer</text>
<text text-anchor="start" x="499.825" y="-21.3" font-family="Times,serif" font-size="14.00">created_at :timestamp without time zone</text>
<text text-anchor="start" x="499.825" y="-7.3" font-family="Times,serif" font-size="14.00">updated_at :timestamp without time zone</text>
</g>
</g>
</svg>
